<?xml version="1.0" encoding="UTF-8" standalone="no"?>
<svg width="245px" height="50px" viewBox="0 0 245 50" version="1.1" xmlns="http://www.w3.org/2000/svg" xmlns:xlink="http://www.w3.org/1999/xlink">
    <!-- Generator: Sketch 40.1 (33804) - http://www.bohemiancoding.com/sketch -->
    <title>logo-rect</title>
    <desc>Created with Sketch.</desc>
    <defs></defs>
    <g id="Page-1" stroke="none" stroke-width="1" fill="none" fill-rule="evenodd">
        <g id="logo-rect" fill="#9A9A9A">
            <g id="Page-1">
                <g id="logo-rect">
                    <g id="Group">
                        <path d="M0.5,0 L0.5,50 L122.5,50 L122.5,0 L0.5,0 L0.5,0 L0.5,0 Z M29.5,26.2 C29.5,27.5 29.1,28.7 28.7,29.8 C28.3,30.9 27.6,31.8 26.8,32.6 C26,33.4 25.1,34 24,34.4 C22.9,34.8 21.6,35.1 20.2,35.1 C18.8,35.1 17.5,34.9 16.4,34.4 C15.3,34 14.3,33.3 13.6,32.5 C12.8,31.7 12.4,30.8 12,29.7 C11.6,28.6 11.5,27.4 11.5,26.1 L11.5,13 L15.5,13 L15.5,26.1 C15.5,26.9 15.5,27.7 15.7,28.3 C15.9,29 16.2,29.5 16.6,30 C17,30.5 17.5,30.8 18.1,31.1 C18.7,31.4 19.4,31.5 20.2,31.5 C21,31.5 21.7,31.4 22.3,31.1 C22.9,30.8 23.4,30.5 23.9,30 C24.3,29.5 24.8,29 25.1,28.3 C25.3,27.6 25.6,26.9 25.6,26.1 L25.6,13 L29.6,13 L29.6,26.2 L29.5,26.2 L29.5,26.2 Z M46.7,35 C46.3,35 46.1,34.9 45.8,34.7 C45.6,34.6 45.3,34.3 45.2,34.1 L40.6,27.1 C40.4,26.8 40.2,26.5 40,26.3 C39.8,26.1 39.6,26 39.2,26 L37.5,26 L37.5,35 L33.5,35 L33.5,13 L40,13 C41.5,13 42.7,13.2 43.8,13.5 C44.9,13.8 45.7,14.3 46.4,14.8 C47.1,15.4 47.6,16 47.9,16.8 C48.2,17.6 48.4,18.4 48.4,19.3 C48.4,20 48.3,20.7 48.1,21.4 C47.9,22 47.6,22.6 47.2,23.2 C46.8,23.7 46.3,24.2 45.7,24.6 C45.1,25 44.4,25.3 43.7,25.6 C44.2,25.9 44.7,26.4 45,26.9 L50.4,35 L46.7,35 L46.7,35 L46.7,35 Z M68.5,31 C68.2,31.8 67.6,32.5 67,33 C66.3,33.6 65.5,34.1 64.5,34.4 C63.5,34.7 62.4,34.9 61.1,34.9 L52.5,34.9 L52.5,13 L60.4,13 C61.8,13 63,13.2 64,13.5 C65,13.8 65.8,14.2 66.5,14.7 C67.1,15.2 67.6,15.8 67.9,16.5 C68.2,17.2 68.4,18 68.4,18.9 C68.4,19.4 68.3,19.9 68.2,20.4 C68,20.9 67.8,21.3 67.5,21.7 C67.2,22.1 66.8,22.5 66.3,22.8 C65.8,23.1 65.2,23.4 64.6,23.6 C67.6,24.3 69.1,25.9 69.1,28.4 C69,29.4 68.8,30.3 68.5,31 L68.5,31 L68.5,31 Z M88.4,35 C88.1,35 87.8,34.8 87.5,34.7 C87.3,34.5 87.1,34.5 87,34.3 L85.4,30 L76.4,30 L74.8,34.2 C74.7,34.4 74.6,34.6 74.3,34.8 C74.1,35 73.8,35 73.5,35 L70.4,35 L78.9,13 L83,13 L91.5,35 L88.4,35 L88.4,35 L88.4,35 Z M112.5,35 L110,35 C109.7,35 109.4,34.9 109.2,34.8 C109,34.7 108.8,34.5 108.6,34.2 L97.2,19.7 C97.2,20 97.3,20.3 97.4,20.6 C97.5,20.9 97.5,21.2 97.5,21.5 L97.5,35 L93.5,35 L93.5,13 L95.9,13 C96.1,13 96.2,13.1 96.3,13.1 C96.4,13.1 96.5,13.2 96.6,13.2 C96.7,13.2 96.8,13.3 96.9,13.4 C97,13.5 97.1,13.6 97.2,13.7 L108.6,28.2 C108.6,27.8 108.5,27.5 108.5,27.2 L108.5,26.3 L108.5,13 L112.5,13 L112.5,35 L112.5,35 L112.5,35 Z" id="Shape"></path>
                        <path d="M63.3,22 C64,21.5 64.4,20.6 64.4,19.5 C64.4,18.4 64.1,17.4 63.4,16.9 C62.8,16.4 61.8,16 60.4,16 L56.5,16 L56.5,23 L60.2,23 C61.6,23 62.6,22.5 63.3,22 L63.3,22 L63.3,22 Z" id="Shape"></path>
                        <path d="M81.4,18.3 C81.3,17.9 81.1,17.4 81,16.9 C80.9,17.4 80.7,17.9 80.6,18.3 C80.5,18.7 80.3,19.3 80.2,19.6 L77.5,27 L84.4,27 L81.8,19.6 C81.6,19.3 81.5,18.8 81.4,18.3 L81.4,18.3 L81.4,18.3 Z" id="Shape"></path>
                        <path d="M64.1,26.2 C63.8,25.9 63.4,25.6 62.9,25.4 C62.4,25.2 61.7,25 61,25 L56.5,25 L56.5,32 L61.1,32 C61.9,32 62.5,31.8 63,31.6 C63.5,31.4 63.9,31.1 64.2,30.8 C64.5,30.5 64.7,30.1 64.9,29.7 C65,29.3 65.1,28.9 65.1,28.4 C65.1,27.9 65,27.5 64.9,27.1 C64.6,26.8 64.4,26.4 64.1,26.2 L64.1,26.2 L64.1,26.2 Z" id="Shape"></path>
                        <path d="M44.4,19.7 C44.4,18.6 44,17.6 43.3,17 C42.6,16.4 41.5,16 40,16 L37.5,16 L37.5,23 L40,23 C40.8,23 41.4,23.2 42,23 C42.6,22.8 43,22.7 43.4,22.3 C43.8,22 44,21.6 44.2,21.2 C44.3,20.7 44.4,20.3 44.4,19.7 L44.4,19.7 L44.4,19.7 Z" id="Shape"></path>
                    </g>
                    <path d="M121.5,0 L121.5,50 L244.5,50 L244.5,0 L121.5,0 L121.5,0 L121.5,0 Z M240.5,46 L125.5,46 L125.5,4 L240.5,4 L240.5,46 L240.5,46 L240.5,46 Z" id="Shape"></path>
                    <g id="Piper" transform="translate(139.000000, 13.000000)">
                        <path d="M3.1,14 L3.1,22 L0.2,22 L0.2,0.5 L6.5,0.5 C7.9,0.5 9,0.7 10,1 C11,1.3 11.8,1.8 12.5,2.3 C13.2,2.9 13.7,3.6 14,4.4 C14.3,5.2 14.5,6.1 14.5,7.1 C14.5,8.1 14.3,9 14,9.8 C13.6,10.6 13.1,11.3 12.5,11.9 C11.8,12.5 11,13 10,13.3 C9,13.6 7.9,13.8 6.6,13.8 L3.1,13.8 L3.1,14 L3.1,14 Z M3.1,11.6 L6.6,11.6 C7.4,11.6 8.2,11.5 8.8,11.3 C9.4,11.1 10,10.8 10.4,10.4 C10.8,10 11.2,9.5 11.4,9 C11.6,8.5 11.7,7.8 11.7,7.2 C11.7,5.8 11.3,4.8 10.4,4 C9.6,3.2 8.3,2.8 6.6,2.8 L3.1,2.8 L3.1,11.6 L3.1,11.6 L3.1,11.6 Z" id="Shape"></path>
                        <polygon id="Shape" points="24.7 22 21.8 22 21.8 0.5 24.7 0.5"></polygon>
                        <path d="M34.7,14 L34.7,22 L31.8,22 L31.8,0.5 L38.1,0.5 C39.5,0.5 40.6,0.7 41.6,1 C42.6,1.3 43.4,1.8 44.1,2.3 C44.8,2.9 45.3,3.6 45.6,4.4 C45.9,5.2 46.1,6.1 46.1,7.1 C46.1,8.1 45.9,9 45.6,9.8 C45.2,10.6 44.7,11.3 44.1,11.9 C43.4,12.5 42.6,13 41.6,13.3 C40.6,13.6 39.5,13.8 38.2,13.8 L34.7,13.8 L34.7,14 L34.7,14 Z M34.7,11.6 L38.2,11.6 C39,11.6 39.8,11.5 40.4,11.3 C41,11.1 41.6,10.8 42,10.4 C42.4,10 42.8,9.5 43,9 C43.2,8.5 43.3,7.8 43.3,7.2 C43.3,5.8 42.9,4.8 42,4 C41.2,3.2 39.9,2.8 38.2,2.8 L34.7,2.8 L34.7,11.6 L34.7,11.6 L34.7,11.6 Z" id="Shape"></path>
                        <polygon id="Shape" points="67.1 0.5 67.1 2.9 56.8 2.9 56.8 10 65.2 10 65.2 12.3 56.8 12.3 56.8 19.6 67.1 19.6 67.1 22 53.9 22 53.9 0.5"></polygon>
                        <path d="M77.4,13 L77.4,22 L74.5,22 L74.5,0.5 L80.6,0.5 C82,0.5 83.1,0.6 84.1,0.9 C85.1,1.2 85.9,1.6 86.6,2.1 C87.2,2.6 87.7,3.2 88,4 C88.3,4.7 88.5,5.6 88.5,6.5 C88.5,7.3 88.4,8 88.1,8.6 C87.9,9.3 87.5,9.9 87.1,10.4 C86.6,10.9 86.1,11.4 85.4,11.7 C84.7,12.1 84,12.4 83.2,12.5 C83.6,12.7 83.9,13 84.2,13.4 L90.5,21.9 L87.9,21.9 C87.4,21.9 87,21.7 86.7,21.3 L81.1,13.6 C80.9,13.4 80.7,13.2 80.5,13.1 C80.3,13 80,13 79.6,13 L77.4,13 L77.4,13 L77.4,13 Z M77.4,10.9 L80.4,10.9 C81.3,10.9 82,10.8 82.6,10.6 C83.2,10.4 83.8,10.1 84.2,9.7 C84.6,9.3 85,8.9 85.2,8.4 C85.4,7.9 85.5,7.3 85.5,6.7 C85.5,5.4 85.1,4.5 84.2,3.8 C83.4,3.2 82.1,2.8 80.4,2.8 L77.2,2.8 L77.2,10.9 L77.4,10.9 L77.4,10.9 Z" id="Shape"></path>
                    </g>
                </g>
            </g>
        </g>
    </g>
</svg>